<svg xmlns="http://www.w3.org/2000/svg" width="55" height="90" fill="none" xmlns:v="https://vecta.io/nano"><rect width="55" height="90" rx="10" fill="#f6e5ff"/><path d="M38.316 26.508c0 5.97-4.844 14.888-10.82 14.888s-10.82-8.918-10.82-14.888 4.844-10.809 10.82-10.809 10.82 4.839 10.82 10.809zM14.434 45.881c2.375-2.026 5.011-3.402 7.748-4.143 1.612-.436 3.26 5.365 4.909 5.367 1.642.002 3.285-5.797 4.9-5.367 2.799.746 5.509 2.132 7.962 4.143 6.277 5.146 6.941 8.868 6.941 15.499 0 7.954-38.789 8.362-38.789 0 0-6.537.213-10.282 6.329-15.499z" fill="#fff"/></svg>