<svg xmlns="http://www.w3.org/2000/svg" width="90" height="90" fill="#b38ebb" xmlns:v="https://vecta.io/nano"><path d="M24.848 16.994c.706-1.917 3.402-1.917 4.108 0l5.976 16.235c.222.602.694 1.078 1.294 1.301l16.149 6.008c1.906.709 1.906 3.42 0 4.129l-16.149 6.007c-.599.223-1.072.698-1.294 1.301L28.956 68.21c-.706 1.917-3.402 1.917-4.108 0l-5.976-16.235c-.222-.603-.694-1.078-1.294-1.301L1.43 44.667c-1.906-.709-1.906-3.42 0-4.129l16.149-6.007c.599-.223 1.072-.698 1.294-1.301l5.976-16.235zm44.373 35.219c.506-1.375 2.441-1.375 2.948 0l4.288 11.651c.159.432.498.773.928.933l11.589 4.311c1.368.509 1.368 2.454 0 2.963l-11.589 4.311c-.43.16-.769.501-.928.933l-4.288 11.651c-.506 1.376-2.441 1.376-2.948 0l-4.288-11.651c-.159-.433-.498-.773-.928-.933l-11.589-4.311c-1.368-.509-1.368-2.454 0-2.963l11.589-4.311c.43-.16.769-.501.928-.933l4.288-11.651zM58.196.761a1.16 1.16 0 0 1 2.175 0l3.164 8.595c.117.319.368.571.685.689l8.55 3.18a1.17 1.17 0 0 1 0 2.186l-8.55 3.18a1.16 1.16 0 0 0-.685.689l-3.164 8.595a1.16 1.16 0 0 1-2.175 0l-3.164-8.595a1.16 1.16 0 0 0-.685-.689l-8.549-3.18a1.17 1.17 0 0 1 0-2.186l8.549-3.18c.317-.118.568-.37.685-.689L58.196.761z"/></svg>