<svg xmlns="http://www.w3.org/2000/svg" width="250" height="50" fill="none" xmlns:v="https://vecta.io/nano"><path d="M25.419.006a24.79 24.79 0 0 0-17.691 6.89C2.969 11.453.197 17.72.02 24.326H0v23.703c0 .523.207 1.024.574 1.394S1.44 50 1.96 50h23.573v-.017c6.57-.178 12.803-2.966 17.336-7.752s6.996-11.182 6.851-17.79C49.449 11.144 38.643.288 25.419.006z" fill="#007ee1"/><path d="M34.545 13.546a1.73 1.73 0 0 0-.665-.357 1.72 1.72 0 0 0-.753-.039c-.251.043-.489.14-.698.286s-.383.336-.511.558c-.63 1.093-1.502 2.026-2.548 2.725a14.82 14.82 0 0 0-9.061-.028c-1.022-.695-1.875-1.613-2.495-2.686-.126-.22-.299-.409-.506-.555s-.443-.244-.692-.289a1.72 1.72 0 0 0-.748.032c-.244.066-.471.184-.664.347-2.332 1.991-4 4.653-4.779 7.627a15.1 15.1 0 0 0 .423 9.004c1.054 2.887 2.965 5.379 5.473 7.14s5.493 2.705 8.552 2.705 6.044-.944 8.552-2.705 4.419-4.253 5.473-7.14 1.202-6.03.423-9.004-2.447-5.636-4.779-7.627v.006z" fill="#fff"/><path d="M21.514 27.659a1.05 1.05 0 0 1-.405-.081c-.128-.054-.245-.132-.343-.231a1.06 1.06 0 0 1-.229-.345 1.05 1.05 0 0 1-.079-.407c-.019-.504-.231-.98-.592-1.33a1.93 1.93 0 0 0-2.688 0c-.361.35-.573.826-.592 1.33a1.06 1.06 0 0 1-1.056 1.061 1.05 1.05 0 0 1-.746-.311c-.198-.199-.309-.469-.309-.75 0-1.08.427-2.115 1.186-2.879a4.04 4.04 0 0 1 5.726 0c.759.763 1.186 1.799 1.186 2.879 0 .282-.111.553-.31.753s-.468.312-.748.312zm12.696 0a1.05 1.05 0 0 1-.405-.081c-.128-.054-.245-.132-.343-.231a1.06 1.06 0 0 1-.229-.345 1.07 1.07 0 0 1-.08-.407c-.019-.504-.231-.98-.592-1.33a1.93 1.93 0 0 0-2.688 0c-.361.35-.573.826-.592 1.33a1.07 1.07 0 0 1-.064.424 1.08 1.08 0 0 1-.225.364c-.098.105-.218.188-.35.245s-.274.086-.418.086-.286-.029-.418-.086a1.06 1.06 0 0 1-.35-.245c-.099-.105-.175-.228-.225-.364a1.07 1.07 0 0 1-.064-.424c0-1.08.427-2.115 1.186-2.879a4.04 4.04 0 0 1 5.726 0c.759.763 1.186 1.799 1.186 2.879a1.09 1.09 0 0 1-.079.407 1.06 1.06 0 0 1-.229.345c-.098.099-.214.177-.343.231a1.05 1.05 0 0 1-.405.081zm45.49 8.886a8.14 8.14 0 0 1-2.162-.26 7.25 7.25 0 0 1-1.614-.64c-.414-.229-.798-.509-1.141-.835a7.89 7.89 0 0 1-.765-.835v9.118c-.002.304-.124.595-.338.811a1.16 1.16 0 0 1-.808.344h-5.339c-.304-.005-.594-.128-.808-.344a1.17 1.17 0 0 1-.338-.811V15.01c.002-.304.124-.595.338-.811s.504-.339.808-.344h5.13c.15-.001.299.029.437.088a1.1 1.1 0 0 1 .366.255 1.1 1.1 0 0 1 .253.371c.058.14.087.29.086.441v.988l.83-.9a4.45 4.45 0 0 1 1.099-.835c.509-.268 1.05-.469 1.61-.599a10 10 0 0 1 2.356-.237 11.07 11.07 0 0 1 3.6.58c1.11.372 2.124.986 2.969 1.796.888.869 1.588 1.911 2.055 3.063a12.19 12.19 0 0 1 .872 4.366l.042 1.731-.042 1.735c-.02 1.497-.316 2.977-.872 4.367a9.08 9.08 0 0 1-2.055 3.058 8.11 8.11 0 0 1-2.969 1.819 10.6 10.6 0 0 1-3.6.603h0zm2.148-10.153c.093-.935.093-1.877 0-2.812a6.12 6.12 0 0 0-1.03-3.067c-.6-.872-1.603-1.309-3.011-1.309a3.84 3.84 0 0 0-1.702.353 3.51 3.51 0 0 0-1.192.928 4.65 4.65 0 0 0-.742 1.281 6.26 6.26 0 0 0-.357 1.457 17.59 17.59 0 0 0 0 3.517c.06.498.18.988.357 1.457a4.64 4.64 0 0 0 .742 1.281 3.45 3.45 0 0 0 1.192.928 3.8 3.8 0 0 0 1.702.353c1.392 0 2.412-.431 3.011-1.304a6.12 6.12 0 0 0 1.03-3.063h0zm25.93 3.387a1.28 1.28 0 0 1 .466-.43c.189-.102.4-.155.615-.155h5.659a.83.83 0 0 1 .373.038.82.82 0 0 1 .318.199c.089.09.157.198.198.318a.83.83 0 0 1 .039.373 3.57 3.57 0 0 1-.636 1.564 8.74 8.74 0 0 1-1.971 2.139 12.4 12.4 0 0 1-3.456 1.903c-3.227 1.072-6.714 1.072-9.941 0a9.35 9.35 0 0 1-3.597-2.285c-1.007-1.029-1.764-2.276-2.21-3.645-.516-1.559-.767-3.193-.742-4.835a13.83 13.83 0 0 1 .742-4.603 10.17 10.17 0 0 1 2.203-3.661c1.016-1.053 2.245-1.877 3.604-2.418a12.84 12.84 0 0 1 4.899-.877c1.822-.05 3.631.313 5.292 1.063 1.372.635 2.588 1.563 3.563 2.719a10.59 10.59 0 0 1 1.995 3.745c.382 1.2.57 2.453.556 3.712v1.197a1.11 1.11 0 0 1-.087.444c-.059.14-.146.267-.256.373a1.09 1.09 0 0 1-.803.343h-14.115v1.072a3.65 3.65 0 0 0 .276 1.399 3.64 3.64 0 0 0 .792 1.186 3.65 3.65 0 0 0 2.583 1.071h0a4.37 4.37 0 0 0 3.641-1.949h0zm-3.433-11.568c-.534-.025-1.066.09-1.542.335a3.06 3.06 0 0 0-1.171 1.057c-.624.922-1.004 1.987-1.104 3.095h7.63a6.58 6.58 0 0 0-1.099-3.095 3.07 3.07 0 0 0-2.723-1.424l.009.032zm24.71 9.972a2.39 2.39 0 0 0 .422 1.522 1.68 1.68 0 0 0 1.392.533h3.738c.304.005.594.128.808.344s.336.507.338.811v3.564c.002.152-.027.303-.086.443s-.144.267-.253.374-.229.195-.368.253a1.1 1.1 0 0 1-.439.086h-4.026a10.79 10.79 0 0 1-3.623-.575 7.67 7.67 0 0 1-2.783-1.67 7.6 7.6 0 0 1-1.781-2.654 9.31 9.31 0 0 1-.636-3.531V19.53h-3.136a1.1 1.1 0 0 1-.807-.343 1.12 1.12 0 0 1-.251-.372 1.13 1.13 0 0 1-.087-.44V15.01a1.13 1.13 0 0 1 .338-.812c.108-.106.229-.196.368-.255a1.1 1.1 0 0 1 .439-.088h3.136v-6.96a1.14 1.14 0 0 1 .339-.817c.104-.109.229-.195.368-.253a1.1 1.1 0 0 1 .439-.086h4.991a1.1 1.1 0 0 1 .439.086c.139.058.264.144.368.253a1.14 1.14 0 0 1 .339.817v6.96h5.177a1.1 1.1 0 0 1 .439.088c.139.059.264.146.368.255a1.22 1.22 0 0 1 .251.372 1.13 1.13 0 0 1 .087.44v3.364c.001.151-.029.301-.087.44a1.13 1.13 0 0 1-.251.372 1.1 1.1 0 0 1-.807.343h-5.14l-.023 8.654zm29.696-8.186h-3.939a1.77 1.77 0 0 1-1.067-.357l-1.544-1.165a2.86 2.86 0 0 0-.984-.464h0a4.02 4.02 0 0 0-1.577-.088h-.134c-.49.071-.937.318-1.257.696v.028c-.28.332-.439.75-.45 1.184a1.91 1.91 0 0 0 .389 1.206l.075.097c.222.218.508.359.816.404.408.102.983.209 1.716.32l2.904.464c2.477.427 4.286 1.304 5.413 2.631a6.83 6.83 0 0 1 1.698 4.561 5.51 5.51 0 0 1-.696 2.715 6.7 6.7 0 0 1-2.041 2.227 10.64 10.64 0 0 1-3.247 1.522 15.73 15.73 0 0 1-4.374.557 14.6 14.6 0 0 1-4.314-.58c-1.113-.325-2.168-.823-3.127-1.476a7.08 7.08 0 0 1-1.938-1.972 4.56 4.56 0 0 1-.757-2.097h0c0-.238.095-.465.263-.633s.395-.262.633-.262h4.263a1.92 1.92 0 0 1 1.22.436l1.02.831c.787.638 1.77.986 2.783.984h.279c.77 0 1.509-.306 2.055-.849h0a1.57 1.57 0 0 0 .337-.503 1.55 1.55 0 0 0 0-1.188 1.57 1.57 0 0 0-.337-.503h0c-.51-.514-1.152-.877-1.856-1.049l-3.646-.9-2.101-.594a6.57 6.57 0 0 1-3.247-2.116h0a5.04 5.04 0 0 1-1.127-2.58l-.075-.58a5.26 5.26 0 0 1 .093-1.995 5.4 5.4 0 0 1 .524-1.295 7.07 7.07 0 0 1 1.939-2.181 9.48 9.48 0 0 1 3.006-1.48 13.56 13.56 0 0 1 3.924-.534c1.327-.011 2.649.169 3.925.534 1.094.318 2.138.786 3.103 1.392l.283.186a6.55 6.55 0 0 1 2.231 2.756l.037.088a1.17 1.17 0 0 1 .09.569 1.16 1.16 0 0 1-.194.542c-.109.162-.257.293-.43.383a1.15 1.15 0 0 1-.56.13zm46.177 3.361l.042 1.647-.042 1.652a10.25 10.25 0 0 1-.899 3.851 9.99 9.99 0 0 1-2.255 3.146c-1.005.927-2.182 1.648-3.465 2.121a13.72 13.72 0 0 1-9.064 0 10.37 10.37 0 0 1-3.461-2.121c-.952-.889-1.718-1.959-2.254-3.146a10.17 10.17 0 0 1-.928-3.851l-.041-1.652.041-1.647a9.64 9.64 0 0 1 .863-3.851 9.83 9.83 0 0 1 2.273-3.146 10.9 10.9 0 0 1 3.484-2.139 13.34 13.34 0 0 1 9.064 0c1.285.487 2.467 1.213 3.483 2.139.958.884 1.726 1.955 2.255 3.146a10.4 10.4 0 0 1 .904 3.851h0zm-14.922 3.485a5.36 5.36 0 0 0 1.127 3.248 3.56 3.56 0 0 0 1.198.866c.455.202.948.306 1.446.306s.991-.104 1.446-.306a3.56 3.56 0 0 0 1.198-.866c.724-.928 1.12-2.071 1.127-3.248a20.55 20.55 0 0 0 0-3.712 5.33 5.33 0 0 0-1.127-3.248 3.56 3.56 0 0 0-1.198-.867c-.455-.202-.948-.306-1.446-.306s-.991.104-1.446.306a3.56 3.56 0 0 0-1.198.867 5.36 5.36 0 0 0-1.127 3.248 20.55 20.55 0 0 0 0 3.712zm34.374-12.99a1.1 1.1 0 0 1 .437.088c.138.059.262.146.365.255a1.1 1.1 0 0 1 .253.371 1.13 1.13 0 0 1 .086.441v4.325c.002.151-.027.301-.085.441a1.1 1.1 0 0 1-.254.371c-.102.11-.227.198-.365.257s-.287.089-.437.087h-3.86c-2.601 0-3.901 1.313-3.901 3.94v10.529c.002.152-.027.303-.086.443s-.144.267-.253.374a1.17 1.17 0 0 1-.368.253 1.1 1.1 0 0 1-.439.086h-5.339a1.1 1.1 0 0 1-.439-.086c-.138-.058-.264-.144-.368-.253s-.195-.233-.253-.374a1.14 1.14 0 0 1-.086-.443V15.004a1.17 1.17 0 0 1 .338-.811 1.16 1.16 0 0 1 .808-.344h4.922c.151-.001.3.029.439.088s.264.146.368.255a1.22 1.22 0 0 1 .251.372 1.15 1.15 0 0 1 .088.44v.988a7.76 7.76 0 0 1 2.351-1.541 8.13 8.13 0 0 1 3.285-.603l2.542.005zm13.79 29.383a2.27 2.27 0 0 1-.422.682 1.02 1.02 0 0 1-.364.263c-.14.059-.291.087-.443.081h-4.638a.98.98 0 0 1-.391-.074.97.97 0 0 1-.328-.223c-.096-.095-.172-.209-.223-.334a.99.99 0 0 1-.074-.395c-.002-.102.012-.204.041-.302l3.308-8.19-8.239-19.55a.96.96 0 0 1-.041-.297.99.99 0 0 1 .073-.395.98.98 0 0 1 .224-.333.97.97 0 0 1 .719-.302h5.144c.152-.006.303.021.442.081s.265.149.365.263a2.3 2.3 0 0 1 .422.687l4.509 12.199 4.861-12.199c.098-.253.241-.486.423-.687a1.02 1.02 0 0 1 .364-.263c.14-.059.291-.087.443-.081h4.638a1.01 1.01 0 0 1 .391.076.98.98 0 0 1 .328.225c.096.095.172.209.223.334s.076.259.074.395c.002.1-.012.201-.042.297L238.17 43.236zm-64.623-15.053c-.035.541.113 1.077.422 1.522a1.68 1.68 0 0 0 1.392.534h3.738a1.17 1.17 0 0 1 .809.344c.214.216.335.507.337.811v3.564a1.12 1.12 0 0 1-.085.443 1.16 1.16 0 0 1-.253.374 1.11 1.11 0 0 1-.369.253 1.1 1.1 0 0 1-.439.086h-4.026c-1.231.016-2.457-.178-3.623-.575a7.67 7.67 0 0 1-2.783-1.67 7.6 7.6 0 0 1-1.781-2.654 9.31 9.31 0 0 1-.636-3.531v-8.153h-3.135a1.11 1.11 0 0 1-.808-.343 1.14 1.14 0 0 1-.251-.372c-.058-.139-.088-.289-.087-.44V15.01a1.13 1.13 0 0 1 .087-.44 1.14 1.14 0 0 1 .251-.372c.104-.109.23-.196.368-.255s.289-.089.44-.088h3.135v-6.96c0-.152.029-.302.087-.442a1.14 1.14 0 0 1 .252-.374c.104-.109.229-.195.368-.253a1.1 1.1 0 0 1 .439-.086h4.991a1.1 1.1 0 0 1 .439.086c.139.058.264.144.368.253a1.14 1.14 0 0 1 .339.817v6.96h5.14a1.1 1.1 0 0 1 .439.088c.139.059.264.146.368.255a1.22 1.22 0 0 1 .251.372 1.15 1.15 0 0 1 .088.44v3.364c0 .151-.03.301-.088.44a1.13 1.13 0 0 1-.251.372 1.1 1.1 0 0 1-.807.343h-5.14l.014 8.654z" fill="#007ee1"/></svg>